<svg xmlns="http://www.w3.org/2000/svg" width="207.613" height="21.68" viewBox="0 0 207.613 21.68">
  <g id="logo_footer" transform="translate(-346.079 -163.367)">
    <path id="패스_947" data-name="패스 947" d="M352.43,196.6a3.176,3.176,0,1,1-3.176-3.179,3.177,3.177,0,0,1,3.176,3.179" transform="translate(0 -14.728)" fill="#838383"/>
    <path id="패스_948" data-name="패스 948" d="M511.243,166.546a3.175,3.175,0,1,1-3.175-3.179,3.177,3.177,0,0,1,3.175,3.179" transform="translate(-77.834 0)" fill="#838383"/>
    <rect id="사각형_423" data-name="사각형 423" width="5.494" height="10.421" transform="translate(346.508 163.787)" fill="#838383"/>
    <path id="패스_949" data-name="패스 949" d="M371.107,164.189h-6.053l-7.359,10.421,7.359,10.421h6.053l-7.359-10.421Z" transform="translate(-5.693 -0.403)" fill="#838383"/>
    <path id="패스_950" data-name="패스 950" d="M405.994,164.189v20.842H400.5v-8.282h-6.485v8.282H388.52V164.189h5.494v8H400.5v-8Z" transform="translate(-20.8 -0.403)" fill="#838383"/>
    <path id="패스_951" data-name="패스 951" d="M446.209,180.781v4.25H431.063V164.189h15.009v4.25H436.5v3.977h8.406v4.111H436.5v4.254Z" transform="translate(-41.65 -0.403)" fill="#838383"/>
    <path id="패스_952" data-name="패스 952" d="M480.6,165.065a6.79,6.79,0,0,1,3,2.5,6.859,6.859,0,0,1,1.055,3.82,6.554,6.554,0,0,1-4.051,6.292,11.078,11.078,0,0,1-4.578.875H473.2v6.481H467.7V164.189h8.321a11.061,11.061,0,0,1,4.578.876m-2.359,8.416a2.61,2.61,0,0,0,.86-2.1,2.653,2.653,0,0,0-.86-2.112,3.787,3.787,0,0,0-2.553-.75H473.2v5.694h2.494a3.837,3.837,0,0,0,2.553-.736" transform="translate(-59.607 -0.403)" fill="#838383"/>
    <rect id="사각형_424" data-name="사각형 424" width="5.494" height="11.362" transform="translate(427.486 173.267)" fill="#838383"/>
    <path id="패스_953" data-name="패스 953" d="M566.818,181.2v1.189a10.966,10.966,0,0,1-.361,2.889l-.121.39-.015.047h1.666v1.315h-5.222v1.978h4.3v4.312h-1.63v-2.983h-8.09v-1.329h3.79v-1.978h-4.446V185.72h8.047l.052-.133a8.292,8.292,0,0,0,.4-2.672v-.4H557.5V181.2Z" transform="translate(-103.219 -8.742)" fill="#838383"/>
    <path id="패스_954" data-name="패스 954" d="M612.77,181.2v1.129a5.925,5.925,0,0,1-1.044,3.05,8.287,8.287,0,0,1-4.919,2.74c-.022-.055-.485-1.2-.512-1.266,2.9-.649,4.72-2.2,4.873-4.148l.015-.192h-4.264V181.2Z" transform="translate(-127.531 -8.742)" fill="#838383"/>
    <path id="패스_955" data-name="패스 955" d="M617.06,189.488" transform="translate(-132.808 -12.802)" fill="#838383"/>
    <path id="패스_956" data-name="패스 956" d="M624.76,180.806V183.6h1.676v1.344H624.76v2.964h-1.616v-7.1Z" transform="translate(-135.79 -8.547)" fill="#838383"/>
    <path id="패스_957" data-name="패스 957" d="M611.434,196.761c0-1.761,1.575-3.089,3.664-3.089h.048c2.089,0,3.664,1.328,3.664,3.089,0,1.777-1.575,3.117-3.664,3.117H615.1c-2.089,0-3.664-1.34-3.664-3.117M615.1,195a1.781,1.781,0,1,0,0,3.52h.048a1.781,1.781,0,1,0,0-3.52Z" transform="translate(-130.051 -14.852)" fill="#838383"/>
    <path id="패스_958" data-name="패스 958" d="M643.347,184.793c-1.179-.091-3.745-.71-4.148-2.045l-.065-.215H643V181.2h-9.446v1.329h3.871l-.065.215c-.4,1.334-2.969,1.954-4.148,2.045l-.054,0,.372,1.346.038,0a8.594,8.594,0,0,0,4.709-1.912,8.6,8.6,0,0,0,4.709,1.912l.038,0,.373-1.347Z" transform="translate(-140.7 -8.742)" fill="#838383"/>
    <path id="패스_959" data-name="패스 959" d="M643.384,192.42v1.329h-2.868l.05.061a3.011,3.011,0,0,1,.841,2.264,3.415,3.415,0,0,1-3.665,3.19h-.031a3.414,3.414,0,0,1-3.664-3.19,3.01,3.01,0,0,1,.84-2.264l.05-.061H632.07V192.42Zm-5.673,1.415a2.043,2.043,0,1,0,0,4.085h.031a2.043,2.043,0,1,0,0-4.085Z" transform="translate(-140.164 -14.239)" fill="#838383"/>
    <path id="패스_960" data-name="패스 960" d="M664.521,181.2v1.3h-2.561v.221a4.391,4.391,0,0,0,2.982,3.969l-.76,1.176a7.363,7.363,0,0,1-2.8-2.232l-.15-.2-.14.213a7.219,7.219,0,0,1-2.966,2.468c-.032-.053-.711-1.134-.736-1.174a4.414,4.414,0,0,0,2.972-3.983V182.5H657.8v-1.3Z" transform="translate(-152.572 -8.742)" fill="#838383"/>
    <path id="패스_961" data-name="패스 961" d="M699.022,180.806v12.326h-1.587v-7.264h-1.067v7.061h-1.588V180.92h1.588v3.6h1.067v-3.719Z" transform="translate(-170.899 -8.547)" fill="#838383"/>
    <path id="패스_962" data-name="패스 962" d="M718.1,180.806v2.609h1.676v1.344H718.1v6.279h-7.235v.91H718.1v1.183h-8.85V189.9h7.235V189h-7.235v-1.17h7.235v-7.026Z" transform="translate(-177.991 -8.547)" fill="#838383"/>
    <path id="패스_963" data-name="패스 963" d="M713.651,181.2v5.779h-6.272V181.2h1.587v1.573h3.1V181.2Zm-1.625,2.836h-3.06v1.652h3.1V184.04Z" transform="translate(-177.073 -8.742)" fill="#838383"/>
    <path id="패스_964" data-name="패스 964" d="M588.618,181.2v1.129a5.922,5.922,0,0,1-1.044,3.05,8.22,8.22,0,0,1-4.8,2.711l-.5-1.27a7.946,7.946,0,0,0,3.351-1.57,3.74,3.74,0,0,0,1.383-2.544l.015-.192h-4.51V181.2Z" transform="translate(-115.763 -8.742)" fill="#838383"/>
    <path id="패스_965" data-name="패스 965" d="M549.385,181.2v2.938h1.634V185.5h-1.634v3.66h-1.615V181.2Z" transform="translate(-98.848 -8.742)" fill="#838383"/>
    <path id="패스_966" data-name="패스 966" d="M537.671,181.707h-2.955V180.33h-1.6v1.377H530.1v1.27h1.275a3.207,3.207,0,0,0-.669,1.938,3.064,3.064,0,0,0,3.214,2.941h.01a3.063,3.063,0,0,0,3.214-2.941,3.207,3.207,0,0,0-.669-1.938h1.194Zm-3.739,4.878h-.01a1.66,1.66,0,0,1-1.628-1.76,1.642,1.642,0,0,1,1.628-1.759h.01a1.641,1.641,0,0,1,1.627,1.759,1.66,1.66,0,0,1-1.627,1.76" transform="translate(-90.19 -8.314)" fill="#838383"/>
    <path id="패스_967" data-name="패스 967" d="M535.755,196.949v2.75h7.026v1.343H534.14v-4.093Z" transform="translate(-92.169 -16.458)" fill="#838383"/>
    <path id="패스_968" data-name="패스 968" d="M587.693,196.949v2.75h6.94v1.343h-8.57v-4.093Z" transform="translate(-117.616 -16.458)" fill="#838383"/>
    <path id="패스_969" data-name="패스 969" d="M599.218,180.806v8.157H597.6v-3.691h-2.028v-1.343H597.6v-3.123Z" transform="translate(-122.278 -8.547)" fill="#838383"/>
    <path id="패스_970" data-name="패스 970" d="M662.846,196.949v2.75h7.048v1.343h-8.678v-4.093Z" transform="translate(-154.449 -16.458)" fill="#838383"/>
    <rect id="사각형_425" data-name="사각형 425" width="1.616" height="8.157" transform="translate(513.753 172.26)" fill="#838383"/>
    <path id="패스_971" data-name="패스 971" d="M749.1,180.806v9.087h-1.616V188.7h-2.534v-1.27h2.534v-6.628Z" transform="translate(-195.489 -8.547)" fill="#838383"/>
    <path id="패스_972" data-name="패스 972" d="M737.4,197.9v2.309h7.287v1.3h-8.9V197.9Z" transform="translate(-190.993 -16.925)" fill="#838383"/>
    <path id="패스_973" data-name="패스 973" d="M740.362,185.58v1.266a11.334,11.334,0,0,1-2.542.2l-1.228,0v1.759h-1.615v-1.762h-2.632v-1.284l2.293,0a2.993,2.993,0,0,1-.637-.413,2.783,2.783,0,0,1,0-4.181,3.658,3.658,0,0,1,4.481,0,2.782,2.782,0,0,1,0,4.181,3.062,3.062,0,0,1-.647.418l1.233,0a5.872,5.872,0,0,0,1.3-.188m-5.764-2.323a1.641,1.641,0,1,0,1.641-1.641,1.663,1.663,0,0,0-1.641,1.641" transform="translate(-189.309 -8.348)" fill="#838383"/>
    <path id="패스_974" data-name="패스 974" d="M687.186,181.2v1.477a8.241,8.241,0,0,1-4.289,7.3l-.865-1.181a7.6,7.6,0,0,0,2.661-2.519,6.644,6.644,0,0,0,.907-3.542v-.177h-3.388V181.2Z" transform="translate(-164.651 -8.742)" fill="#838383"/>
  </g>
</svg>
